<?xml version="1.0" encoding="UTF-8"?>
<svg width="44px" height="32px" viewBox="0 0 44 32" version="1.1" xmlns="http://www.w3.org/2000/svg" xmlns:xlink="http://www.w3.org/1999/xlink">
    <g id="Page-1" stroke="none" stroke-width="1" fill="none" fill-rule="evenodd">
        <g id="Artboard" transform="translate(-568.000000, -554.000000)" fill="#FF3E6C">
            <path d="M588,582 L588,586 L580,586 L580,582 L588,582 Z M600,582 L600,586 L592,586 L592,582 L600,582 Z M592,578 L580,578 L580,582 L576,582 L576,574 L572,574 L572,582 L568,582 L568,570 L572,570 L572,566 L576,566 L576,562 L580,562 L580,558 L584,558 L584,562 L596,562 L596,558 L600,558 L600,562 L604,562 L604,566 L608,566 L608,570 L612,570 L612,582 L608,582 L608,574 L604,574 L604,582 L600,582 L600,578 L596,578 L592,578 Z M584,566 L580,566 L580,570 L584,570 L584,566 Z M600,566 L596,566 L596,570 L600,570 L600,566 Z M580,554 L580,558 L576,558 L576,554 L580,554 Z M604,554 L604,558 L600,558 L600,554 L604,554 Z" id="Combined-Shape"></path>
        </g>
    </g>
</svg>