<?xml version="1.0" encoding="UTF-8"?>
<svg width="204px" height="148px" viewBox="0 0 204 148" version="1.1" xmlns="http://www.w3.org/2000/svg" xmlns:xlink="http://www.w3.org/1999/xlink">
    <!-- Generator: Sketch 58 (84663) - https://sketch.com -->
    <title>Combined-Shape</title>
    <desc>Created with Sketch.</desc>
    <g id="Page-1" stroke="none" stroke-width="1" fill="none" fill-rule="evenodd">
        <path d="M93,129 L93,148 L56,148 L56,129 L93,129 Z M148,129 L148,148 L111,148 L111,129 L148,129 Z M111.272727,111.5 L55.6363636,111.5 L55.6363636,130 L37.0909091,130 L37.0909091,93 L18.5454545,93 L18.5454545,130 L0,130 L0,74.5 L18.5454545,74.5 L18.5454545,56 L37.0909091,56 L37.0909091,37.5 L55.6363636,37.5 L55.6363636,19 L74.1818182,19 L74.1818182,37.5 L129.818182,37.5 L129.818182,19 L148.363636,19 L148.363636,37.5 L166.909091,37.5 L166.909091,56 L185.454545,56 L185.454545,74.5 L204,74.5 L204,130 L185.454545,130 L185.454545,93 L166.909091,93 L166.909091,130 L148.363636,130 L148.363636,111.5 L129.818182,111.5 L111.272727,111.5 Z M74,55 L55,55 L55,74 L74,74 L74,55 Z M149,55 L130,55 L130,74 L149,74 L149,55 Z M56,0 L56,19 L37,19 L37,0 L56,0 Z M167,0 L167,19 L148,19 L148,0 L167,0 Z" id="Combined-Shape" fill="#000000" fill-rule="nonzero"></path>
    </g>
</svg>